<?xml version="1.0" encoding="utf-8"?>
<!-- Generator: Adobe Illustrator 28.0.0, SVG Export Plug-In . SVG Version: 6.00 Build 0)  -->
<svg version="1.1" id="Layer_1" xmlns="http://www.w3.org/2000/svg" xmlns:xlink="http://www.w3.org/1999/xlink" x="0px" y="0px"
	 viewBox="0 0 800 800" style="enable-background:new 0 0 800 800;" xml:space="preserve">
<style type="text/css">
	.st0{fill:#FFFFFF;}
</style>
<path class="st0" d="M727.7,441.7c0,11.5-4.5,22.5-12.7,30.7L553.3,634c-17.6,16.3-45,15.2-61.3-2.4c-15.4-16.6-15.4-42.2,0-58.9
	l87.7-87.7H220.3l87.7,87.7c17.7,16.1,19,43.5,2.9,61.3c-16.1,17.7-43.5,19-61.3,2.9c-1-0.9-2-1.9-2.9-2.9L85,472.3
	c-16.9-16.9-16.9-44.3,0-61.3l161.7-161.7c16.4-17.4,43.9-18.2,61.3-1.8c17.4,16.4,18.2,43.9,1.8,61.3c-0.6,0.6-1.2,1.2-1.8,1.8
	l-87.7,87.6h359.5L492,310.7c-16.4-17.4-15.6-44.9,1.8-61.3c16.7-15.7,42.8-15.7,59.5,0L715,411.1
	C723.2,419.2,727.7,430.3,727.7,441.7L727.7,441.7z"/>
</svg>
