<?xml version="1.0" encoding="utf-8"?>
<!-- Generator: Adobe Illustrator 28.0.0, SVG Export Plug-In . SVG Version: 6.00 Build 0)  -->
<svg version="1.1" id="Layer_1" xmlns="http://www.w3.org/2000/svg" xmlns:xlink="http://www.w3.org/1999/xlink" x="0px" y="0px"
	 viewBox="0 0 800 800" style="enable-background:new 0 0 800 800;" xml:space="preserve">
<style type="text/css">
	.st0{fill:#FFFFFF;}
</style>
<path class="st0" d="M592.3,490.9c16.9,16.9,16.9,44.3,0,61.3L430.7,713.8c-16.9,16.9-44.3,16.9-61.3,0c0,0,0,0,0,0L207.7,552.1
	c-16.2-17.6-15.2-45,2.4-61.3c16.6-15.3,42.2-15.3,58.9,0l87.7,87.7V219.1L269,306.8c-17.4,16.4-44.9,15.6-61.3-1.8
	c-15.7-16.7-15.7-42.8,0-59.5L369.3,83.8c16.9-16.9,44.3-16.9,61.3,0c0,0,0,0,0,0l161.7,161.7c16.4,17.4,15.6,44.9-1.8,61.3
	c-16.7,15.7-42.8,15.7-59.5,0l-87.7-87.7v359.5l87.7-87.7C548,473.9,575.4,473.9,592.3,490.9z"/>
</svg>
