<?xml version="1.0" encoding="utf-8"?>
<!-- Generator: Adobe Illustrator 28.0.0, SVG Export Plug-In . SVG Version: 6.00 Build 0)  -->
<svg version="1.1" id="_x32_" xmlns="http://www.w3.org/2000/svg" xmlns:xlink="http://www.w3.org/1999/xlink" x="0px" y="0px"
	 viewBox="0 0 800 800" style="enable-background:new 0 0 800 800;" xml:space="preserve">
<style type="text/css">
	.st0{fill:#999999;}
</style>
<g>
	<path class="st0" d="M792.2,187.8c-1-1-2-1.8-3-2.6c-6-4.4-13.6-6-21-4.4l-7.7,1.7c-7.7,1.1-15.4,1.8-23,2
		c-13.2,0.4-26.1-0.5-38.8-2.7c-2.8-0.5-5.5-1-8.3-1.6c-22.5-5-43.8-14.3-62.9-28.2l-0.4-0.3L594.7,128l0,0
		c-3.5-2.5-7.5-3.9-11.5-4.1c-4-0.2-8.1,0.7-11.7,2.7c-2.4,1.4-4.7,3.3-6.4,5.7l-84.9,116.5l-0.1,0.3c-2.6,4.4-3.6,9.4-2.8,14.2
		c0.8,5.3,3.7,10.3,8.3,13.7l0.8,0.6L400,396.1l-86.3-118.5l0.8-0.6c4.6-3.4,7.5-8.4,8.3-13.7c0.7-4.7-0.2-9.8-2.9-14.2l-0.1-0.3
		l-84.9-116.5c-1.8-2.4-4-4.3-6.4-5.7c-3.6-2-7.7-2.9-11.7-2.7c-4,0.2-8,1.6-11.5,4.1l0,0l-32.4,23.7l-0.4,0.3
		c-19.1,13.9-40.4,23.2-62.9,28.2c-2.8,0.6-5.5,1.1-8.3,1.6c-12.6,2.2-25.6,3.1-38.8,2.7c-7.6-0.2-15.3-0.9-23-2l-7.7-1.7
		c-7.4-1.6-15,0.1-21,4.4c-1.1,0.8-2.1,1.6-3,2.6c-6,5.9-8.7,14.3-7.5,22.5c0,1,0.2,2.5,0.5,4.8c0.5,3.2,1.5,8.1,3.5,15.3
		c5.3,19.2,13.6,39.7,23.6,59.7C38,310,49.7,329.4,62,346.2c0.2,0.2,0.4,0.5,0.6,0.8c6.2,8.4,13,17,20.3,25.4
		c7.3,8.4,15.1,16.6,23.1,24.5c16.1,15.7,33.2,30,50.1,40.9c6.3,4.1,10.6,6.5,13.5,7.9c2.1,1.1,3.5,1.6,4.4,2
		c7.5,3.7,16.3,3.6,23.8-0.3c1.1-0.6,2.2-1.3,3.2-2c6-4.4,10-11.2,10.7-18.8l0.7-8c1.2-7.3,2.8-14.4,4.7-21.4
		c3.6-12.9,8.3-25.2,14.3-36.8c1.4-2.8,2.9-5.4,4.4-8.1c6.8-11.7,14.8-22.5,24.2-32.2l97.7,134.1L225.3,635.9l55.2,40.2L400,512.1
		l119.5,164.1l55.2-40.2L442.2,454.1L539.9,320c9.3,9.8,17.4,20.6,24.2,32.2c1.5,2.7,3,5.3,4.4,8.1c5.9,11.6,10.7,23.9,14.3,36.8
		c1.9,7,3.5,14.1,4.7,21.4l0.7,8c0.7,7.6,4.7,14.4,10.7,18.8c1,0.8,2.1,1.4,3.2,2c7.4,3.9,16.3,4,23.8,0.3c0.9-0.3,2.3-0.9,4.4-2
		c2.9-1.4,7.2-3.9,13.5-7.9c16.9-10.9,34.1-25.1,50.1-40.9c8.1-7.9,15.8-16.1,23.1-24.5c7.3-8.4,14.2-16.9,20.3-25.4
		c0.2-0.3,0.4-0.6,0.6-0.8c12.3-16.8,24-36.2,34.1-56.1c10-20,18.3-40.4,23.6-59.7c2-7.2,3-12,3.5-15.3c0.4-2.3,0.5-3.8,0.5-4.8
		C800.9,202.1,798.2,193.7,792.2,187.8z M192.1,415.5c-0.6,3.6-0.9,5.8-1.1,7.5c-0.1,0.8-0.2,1.5-0.1,2.4c0,0.2,0,0.3,0,0.5
		c-0.4,1.1-1.1,2.1-2,2.7c-0.2,0.2-0.4,0.3-0.7,0.4c-1.7,0.9-3.7,0.9-5.3,0l-1.1-0.6l-0.8-0.2l-0.1,0c-0.9-0.3-4.9-2.1-13.5-7.7
		c-15.4-9.9-31.6-23.4-46.9-38.3c-15.3-14.9-29.6-31.4-41.3-47.3l-0.6-0.8c-11.5-15.8-22.8-34.4-32.3-53.3
		C36.8,261.9,29,242.5,24.2,225c-1.8-6.7-2.6-10.8-3-13.1c-0.2-1.1-0.3-1.8-0.3-2.1v-0.1l0-0.9l-0.3-1.1c-0.4-1.9,0.2-3.8,1.6-5.2v0
		c0.2-0.2,0.4-0.3,0.6-0.5c0.9-0.7,2.1-1,3.2-1c0.7,0.2,1.2,0.4,1.8,0.5c1,0.2,1.9,0.4,3.3,0.7c1.4,0.2,3.1,0.5,5.3,0.9
		c19.9,2.9,39.8,3.2,59.2,0.7c3.1,2.8,6.3,6.3,9.8,11.2c5.4,7.5,8.2,13.4,9.9,18.7c1.3,4,2,7.7,2.6,11.8c0.4,3.1,0.8,6.3,1.3,9.8
		c0.8,5.3,1.9,11.2,4.4,17.7c2.4,6.5,6.1,13.4,11.6,21c6.6,9,13.1,15.3,19.4,19.8c4.8,3.4,9.4,5.8,13.6,7.9c3.1,1.5,6.1,2.9,8.9,4.2
		c4.1,2.1,7.8,4.1,11.7,7.3c3.9,3.1,8,7.2,12.6,13.5c3.5,4.8,5.9,9,7.6,12.7C201,376.9,195.3,395.8,192.1,415.5z M276,647.3
		l-21.9-15.9l116.4-159.8l16.7,22.9L276,647.3z M545.9,631.4L524,647.3L412.8,494.6L400,477l-16.7-22.9l-12.8-17.6l-95.1-130.6
		c2.2-1.8,4.4-3.5,6.7-5.2l14.9-10.9l90.2,123.8l12.8,17.5l16.7,23l12.8,17.5L545.9,631.4z M429.5,436.5l-16.7-22.9L503,289.8
		l14.9,10.9c2.3,1.7,4.5,3.4,6.7,5.2L429.5,436.5z M779.1,209.7L779.1,209.7c0,0.3-0.1,1-0.3,2.2c-0.4,2.3-1.2,6.4-3,13.1
		c-4.8,17.5-12.6,36.9-22.1,55.8c-9.5,18.9-20.8,37.5-32.3,53.3l-0.5,0.8c-11.7,15.9-26,32.3-41.3,47.3
		c-15.3,14.9-31.5,28.4-46.9,38.3c-8.5,5.5-12.6,7.3-13.5,7.7l-0.1,0l-0.8,0.2l-1.1,0.6c-1.7,0.9-3.7,1-5.3,0
		c-0.3-0.1-0.5-0.2-0.7-0.4c-0.9-0.7-1.6-1.6-2-2.7v-0.5c0-0.9,0-1.6-0.1-2.4c-0.1-1.7-0.5-3.9-1-7.5c-3.2-19.7-8.9-38.6-17-56.2
		c1.7-3.8,4.1-7.9,7.6-12.7c4.6-6.3,8.7-10.4,12.6-13.5c3.9-3.1,7.6-5.2,11.7-7.3c2.7-1.3,5.7-2.6,8.8-4.2c4.2-2,8.8-4.4,13.6-7.9
		c6.4-4.5,12.9-10.8,19.4-19.8c5.5-7.6,9.2-14.5,11.6-21c2.5-6.5,3.6-12.4,4.4-17.7c0.5-3.5,0.9-6.8,1.3-9.8
		c0.6-4.1,1.3-7.9,2.6-11.8c1.7-5.4,4.5-11.2,9.9-18.7c3.5-4.8,6.7-8.4,9.8-11.2c19.4,2.5,39.3,2.2,59.2-0.7
		c2.2-0.3,3.9-0.6,5.3-0.9c1.4-0.2,2.3-0.4,3.3-0.7c0.5-0.1,1.1-0.3,1.8-0.5c1.1,0,2.2,0.4,3.2,1c0.2,0.2,0.5,0.3,0.6,0.5l0,0
		c1.3,1.4,1.9,3.3,1.6,5.2l-0.2,1.1L779.1,209.7z"/>
</g>
</svg>
