<?xml version="1.0" encoding="utf-8"?>
<!-- Generator: Adobe Illustrator 28.0.0, SVG Export Plug-In . SVG Version: 6.00 Build 0)  -->
<svg version="1.1" id="Layer_1" xmlns="http://www.w3.org/2000/svg" xmlns:xlink="http://www.w3.org/1999/xlink" x="0px" y="0px"
	 viewBox="0 0 800 800" style="enable-background:new 0 0 800 800;" xml:space="preserve">
<style type="text/css">
	.st0{fill-rule:evenodd;clip-rule:evenodd;fill:#FFFFFF;}
</style>
<path class="st0" d="M500,125H300v75H200v164.5L117.3,381l59,176.9l47.4-15.8l-41-123.1L375,380.5V500h50V380.5L617.3,419l-41,123.1
	l47.4,15.8l59-176.9L600,364.5V200H500V125z M450,200v-25H350v25H450z M550,250v104.5l-150-30l-150,30V250H550z M100,625
	c6.6,24.1,6.6,24.1,6.6,24.1l0,0h0.2l0.7-0.2c0.6-0.2,1.6-0.4,2.8-0.8c2.5-0.7,6.2-1.6,10.7-2.7c9.2-2.3,22-5.3,36.7-8.4
	c29.8-6.2,65.2-12,92.2-12c26,0,45.7,5.4,68.4,11.6l0.7,0.2c22.5,6.2,47.9,13.2,81,13.2s58.5-7,81-13.2l0.7-0.2
	C504.3,630.4,524,625,550,625c27,0,62.4,5.8,92.2,12c14.7,3,27.5,6.1,36.7,8.4c4.6,1.1,8.2,2.1,10.7,2.7c1.2,0.3,2.2,0.6,2.8,0.8
	l0.7,0.2h0.2l0,0L700,625c6.7-24.1,6.6-24.1,6.6-24.1l-0.3-0.1l-0.8-0.2c-0.7-0.2-1.8-0.5-3.1-0.8c-2.7-0.7-6.6-1.7-11.4-2.9
	c-9.7-2.4-23.2-5.6-38.6-8.8c-30.4-6.3-70-13-102.4-13c-33.1,0-58.5,7-81,13.2l-0.7,0.2C445.7,594.6,426,600,400,600
	s-45.7-5.4-68.4-11.6l-0.7-0.2c-22.5-6.2-47.9-13.2-81-13.2c-32.4,0-72,6.7-102.4,13c-15.4,3.2-28.9,6.4-38.6,8.8
	c-4.8,1.2-8.7,2.2-11.4,2.9c-1.3,0.4-2.4,0.6-3.1,0.8l-0.8,0.2l-0.2,0.1h-0.1C93.4,600.9,93.4,600.9,100,625z"/>
</svg>
